HIERARCHY
ROOT Hips
{
	OFFSET 0.000000 0.000000 0.000000
	CHANNELS 6 Xposition Yposition Zposition Zrotation Yrotation Xrotation 
	JOINT LHipJoint
	{
		OFFSET 0.000000 0.000000 0.000000
		CHANNELS 3 Zrotation Yrotation Xrotation
		JOINT LeftUpLeg
		{
			OFFSET 1.363060 -1.794630 0.839290
			CHANNELS 3 Zrotation Yrotation Xrotation
			JOINT LeftLeg
			{
				OFFSET 2.448110 -6.726130 0.000000
				CHANNELS 3 Zrotation Yrotation Xrotation
				JOINT LeftFoot
				{
					OFFSET 2.562200 -7.039590 0.000000
					CHANNELS 3 Zrotation Yrotation Xrotation
					JOINT LeftToeBase
					{
						OFFSET 0.157640 -0.433110 2.322550
						CHANNELS 3 Zrotation Yrotation Xrotation
						End Site
						{
							OFFSET 0.000000 0.000000 0.000000
						}
					}
				}
			}
		}
	}
	JOINT RHipJoint
	{
		OFFSET 0.000000 0.000000 0.000000
		CHANNELS 3 Zrotation Yrotation Xrotation
		JOINT RightUpLeg
		{
			OFFSET -1.305520 -1.794630 0.839290
			CHANNELS 3 Zrotation Yrotation Xrotation
			JOINT RightLeg
			{
				OFFSET -2.542530 -6.985550 0.000000
				CHANNELS 3 Zrotation Yrotation Xrotation
				JOINT RightFoot
				{
					OFFSET -2.568260 -7.056230 0.000000
					CHANNELS 3 Zrotation Yrotation Xrotation
					JOINT RightToeBase
					{
						OFFSET -0.164730 -0.452590 2.363150
						CHANNELS 3 Zrotation Yrotation Xrotation
						End Site
						{
							OFFSET 0.000000 0.000000 0.000000
						}
					}
				}
			}
		}
	}
	JOINT LowerBack
	{
		OFFSET 0.000000 0.000000 0.000000
		CHANNELS 3 Zrotation Yrotation Xrotation
		JOINT Spine
		{
			OFFSET 0.028270 2.035590 -0.193380
			CHANNELS 3 Zrotation Yrotation Xrotation
			JOINT Spine1
			{
				OFFSET 0.056720 2.048850 -0.042750
				CHANNELS 3 Zrotation Yrotation Xrotation
				JOINT Neck
				{
					OFFSET 0.000000 0.000000 0.000000
					CHANNELS 3 Zrotation Yrotation Xrotation
					JOINT Neck1
					{
						OFFSET -0.054170 1.746240 0.172020
						CHANNELS 3 Zrotation Yrotation Xrotation
						JOINT Head
						{
							OFFSET 0.104070 1.761360 -0.123970
							CHANNELS 3 Zrotation Yrotation Xrotation
							End Site
							{
								OFFSET 0.000000 0.000000 0.000000
							}
						}
					}
				}
				JOINT LeftShoulder
				{
					OFFSET 0.000000 0.000000 0.000000
					CHANNELS 3 Zrotation Yrotation Xrotation
					JOINT LeftArm
					{
						OFFSET 3.362410 1.200890 -0.311210
						CHANNELS 3 Zrotation Yrotation Xrotation
						JOINT LeftForeArm
						{
							OFFSET 4.983000 -0.000000 -0.000000
							CHANNELS 3 Zrotation Yrotation Xrotation
							JOINT LeftHand
							{
								OFFSET 3.483560 -0.000000 -0.000000
								CHANNELS 3 Zrotation Yrotation Xrotation
								JOINT LeftFingerBase
								{
									OFFSET 0.000000 0.000000 0.000000
									CHANNELS 3 Zrotation Yrotation Xrotation
									JOINT LeftHandIndex1
									{
										OFFSET 0.715260 -0.000000 -0.000000
										CHANNELS 3 Zrotation Yrotation Xrotation
										End Site
										{
											OFFSET 0.000000 0.000000 0.000000
										}
									}
								}
								JOINT LThumb
								{
									OFFSET 0.000000 0.000000 0.000000
									CHANNELS 3 Zrotation Yrotation Xrotation
									End Site
									{
										OFFSET 0.000000 0.000000 0.000000
									}
								}
							}
						}
					}
				}
				JOINT RightShoulder
				{
					OFFSET 0.000000 0.000000 0.000000
					CHANNELS 3 Zrotation Yrotation Xrotation
					JOINT RightArm
					{
						OFFSET -3.136600 1.374050 -0.404650
						CHANNELS 3 Zrotation Yrotation Xrotation
						JOINT RightForeArm
						{
							OFFSET -5.241900 -0.000000 -0.000000
							CHANNELS 3 Zrotation Yrotation Xrotation
							JOINT RightHand
							{
								OFFSET -3.444170 -0.000000 -0.000000
								CHANNELS 3 Zrotation Yrotation Xrotation
								JOINT RightFingerBase
								{
									OFFSET 0.000000 0.000000 0.000000
									CHANNELS 3 Zrotation Yrotation Xrotation
									JOINT RightHandIndex1
									{
										OFFSET -0.622530 -0.000000 -0.000000
										CHANNELS 3 Zrotation Yrotation Xrotation
										End Site
										{
											OFFSET 0.000000 0.000000 0.000000
										}
									}
								}
								JOINT RThumb
								{
									OFFSET 0.000000 0.000000 0.000000
									CHANNELS 3 Zrotation Yrotation Xrotation
									End Site
									{
										OFFSET 0.000000 0.000000 0.000000
									}
								}
							}
						}
					}
				}
			}
		}
	}
}
MOTION
Frames: 5
Frame Time: 0.008333
-5.990500 16.989097 -6.354047 5.486621 86.894660 13.848728 -3.330721 -7.753056 -3.466405 -15.388994 -0.009330 -43.276565 8.123056 18.981619 53.296638 -2.537115 8.280913 3.931815 0.000000 -0.018000 -0.049500 -1.547492 5.749027 -3.319660 5.795205 5.426659 -49.236052 -23.670283 -22.447424 95.182699 2.217119 -7.808897 16.404925 -0.557600 4.783100 -13.290800 -0.338300 -0.705857 38.013339 0.800359 -0.531456 -2.102303 -2.548395 0.055056 -6.173711 -0.405094 0.991527 -5.241577 5.621431 0.720640 2.113280 -0.239200 0.305100 -2.307000 -8.275635 -10.114401 1.639057 -59.899141 -9.642827 35.050986 15.135147 -25.417845 -7.760356 -2.510417 -5.081175 -25.427403 14.479133 9.444275 4.351100 -7.125000 0.000000 0.000000 -7.608800 43.360700 0.309700 9.508322 9.603216 1.202255 62.387514 9.814125 33.601101 -19.431483 29.424083 -9.878388 2.793888 2.142972 -2.954693 -16.232595 -6.153478 2.802700 7.125000 0.000000 0.000000 6.639700 -38.474400 1.072700 
-6.103813 17.010225 -6.342007 5.896558 86.832238 14.486536 -3.305945 -7.826743 -3.619372 -15.293219 0.008147 -43.519932 7.963492 18.917657 52.758483 -2.641426 8.492374 4.498792 0.000000 0.031200 0.085700 -1.479447 5.733403 -3.260219 5.877911 5.165331 -48.543426 -23.764265 -22.372105 95.299712 2.252210 -8.124300 17.437815 -0.497500 4.522200 -12.550600 -0.384403 -0.689438 37.756831 0.800789 -0.538441 -2.041775 -2.601550 0.047627 -6.209061 -0.381438 1.001647 -5.224402 5.616858 0.733093 2.123628 -0.239900 0.312300 -2.277300 -8.310718 -10.105158 1.666381 -59.846895 -9.620641 34.946081 15.150472 -25.425611 -7.782808 -2.497442 -5.104615 -25.532795 14.464766 9.497106 4.372100 -7.125000 0.000000 0.000000 -7.631700 43.432600 0.297000 9.530726 9.608419 1.227764 62.401824 9.785288 33.659161 -19.513233 29.495060 -9.933128 2.801606 2.167832 -3.034417 -16.264082 -6.254263 2.850700 7.125000 0.000000 0.000000 6.619300 -38.603000 1.048400 
-6.217127 17.030999 -6.329496 6.447087 86.795217 15.211623 -3.298646 -7.895086 -3.726261 -15.195650 0.014891 -43.745178 7.802104 18.846536 52.210922 -2.745383 8.709012 5.074813 0.000100 0.059700 0.164000 -1.395344 5.704392 -3.154426 5.967728 4.893939 -47.844107 -23.824046 -22.300194 95.296142 2.283832 -8.455172 18.453878 -0.445600 4.282800 -11.873600 -0.445848 -0.670095 37.630837 0.797130 -0.553401 -2.047628 -2.613306 0.041813 -6.188342 -0.379327 1.010120 -5.263565 5.614344 0.745854 2.132514 -0.240500 0.319300 -2.256300 -8.304233 -10.100240 1.661216 -59.820057 -9.636768 34.853523 15.176095 -25.443529 -7.809311 -2.485247 -5.118656 -25.636447 14.445225 9.524027 4.379700 -7.125000 0.000000 0.000000 -7.655300 43.468300 0.291200 9.508875 9.611608 1.220578 62.430939 9.780865 33.720270 -19.595167 29.565573 -9.984990 2.804042 2.171150 -3.090629 -16.304050 -6.266022 2.861900 7.125000 0.000000 0.000000 6.582900 -38.618600 1.040000 
-6.330204 17.051419 -6.316158 7.031781 86.767909 15.968386 -3.294299 -7.964505 -3.832401 -15.099049 0.028303 -43.962597 7.638446 18.771527 51.654255 -2.846818 8.927657 5.656706 0.000100 0.075600 0.207800 -1.303861 5.677704 -3.050461 6.069402 4.617128 -47.144111 -23.842710 -22.235128 95.189221 2.294989 -8.721915 19.353533 -0.407400 4.097500 -11.351200 -0.502287 -0.654750 37.507651 0.794059 -0.570548 -2.053490 -2.622526 0.034506 -6.172566 -0.382649 1.017695 -5.292827 5.611634 0.757918 2.134541 -0.239700 0.325900 -2.245400 -8.296358 -10.094362 1.656771 -59.800582 -9.648741 34.772960 15.208420 -25.467464 -7.837783 -2.473215 -5.124757 -25.731318 14.424548 9.523304 4.374900 -7.125000 0.000000 0.000000 -7.676600 43.468900 0.291900 9.485646 9.612136 1.212977 62.456459 9.756661 33.787293 -19.691208 29.651097 -10.047434 2.802302 2.173104 -3.150929 -16.335410 -6.260470 2.864800 7.125000 0.000000 0.000000 6.554700 -38.614200 1.036300 
-6.443281 17.071013 -6.301876 7.673002 86.750065 16.773172 -3.292934 -8.034019 -3.937153 -15.005514 0.049010 -44.169644 7.474025 18.693717 51.096017 -2.939054 9.134958 6.237194 0.000200 0.081800 0.224700 -1.204458 5.652042 -2.949241 6.183287 4.334182 -46.442674 -23.813677 -22.175748 94.993308 2.277491 -8.864777 20.055893 -0.388700 4.003300 -11.085800 -0.557741 -0.642231 37.392030 0.791871 -0.588559 -2.058528 -2.625164 0.026185 -6.160716 -0.391736 1.023847 -5.307152 5.608887 0.768318 2.128992 -0.238500 0.331300 -2.248400 -8.287180 -10.087558 1.654277 -59.790876 -9.662445 34.700919 15.241787 -25.492365 -7.864557 -2.460996 -5.122939 -25.813650 14.398029 9.497252 4.357400 -7.125000 0.000000 0.000000 -7.700800 43.436300 0.299100 9.462483 9.609227 1.206023 62.473003 9.715135 33.864061 -19.802597 29.752217 -10.121304 2.796107 2.176267 -3.227547 -16.354548 -6.243485 2.861400 7.125000 0.000000 0.000000 6.538700 -38.597500 1.036400 
